<svg xmlns="http://www.w3.org/2000/svg" viewBox="0 0 64 64" aria-labelledby="title"
aria-describedby="desc" role="img" xmlns:xlink="http://www.w3.org/1999/xlink">
  <title>Certificate</title>
  <desc>A line styled icon from Orion Icon Library.</desc>
  <path data-name="layer2"
  d="M50 46V10a8 8 0 0 0-8-8H9.2c4.4 0 6.8 3.6 6.8 8v44a8 8 0 0 0 8 8" fill="none"
  stroke="#FDFCF5" stroke-linecap="round" stroke-linejoin="round" stroke-width="2"></path>
  <path data-name="layer2" d="M54 46H24a8 8 0 0 1 0 16h30a8 8 0 0 0 0-16zM9.2 2C4.8 2 2 5.6 2 10h14"
  fill="none" stroke="#FDFCF5" stroke-linecap="round" stroke-linejoin="round"
  stroke-width="2"></path>
  <path data-name="layer1" fill="none" stroke="#FDFCF5" stroke-linecap="round"
  stroke-linejoin="round" stroke-width="2" d="M26 14h14M26 24h14M26 34h14"></path>
</svg>